<svg width="75" height="75" viewBox="0 0 75 75" fill="none" xmlns="http://www.w3.org/2000/svg">
<path d="M15.9737 47.294C15.9737 48.8367 15.5162 50.3447 14.659 51.6274C13.8019 52.9101 12.5836 53.9097 11.1583 54.4999C9.73298 55.0902 8.16463 55.2444 6.65163 54.9433C5.13862 54.6421 3.74891 53.8989 2.65828 52.8079C1.56764 51.7168 0.825071 50.3268 0.524481 48.8137C0.223891 47.3005 0.378786 45.7323 0.969574 44.3072C1.56036 42.8821 2.56051 41.6642 3.84351 40.8076C5.12651 39.951 6.63474 39.494 8.17743 39.4947H15.9737V47.294ZM19.9027 47.294C19.9027 45.2251 20.7246 43.2409 22.1876 41.7779C23.6505 40.315 25.6347 39.4931 27.7036 39.4931C29.7726 39.4931 31.7567 40.315 33.2197 41.7779C34.6827 43.2409 35.5045 45.2251 35.5045 47.294V66.8248C35.5045 68.8934 34.6828 70.8772 33.2202 72.3398C31.7575 73.8025 29.7737 74.6242 27.7052 74.6242C25.6367 74.6242 23.6529 73.8025 22.1902 72.3398C20.7276 70.8772 19.9058 68.8934 19.9058 66.8248L19.9027 47.294ZM27.7052 15.9729C26.1625 15.9729 24.6544 15.5154 23.3718 14.6582C22.0891 13.8011 21.0895 12.5828 20.4992 11.1575C19.909 9.73217 19.7547 8.16383 20.0559 6.65082C20.3571 5.13781 21.1002 3.7481 22.1913 2.65747C23.2824 1.56683 24.6724 0.824262 26.1855 0.523672C27.6986 0.223082 29.2669 0.377977 30.692 0.968765C32.1171 1.55955 33.335 2.5597 34.1916 3.8427C35.0482 5.1257 35.5051 6.63393 35.5045 8.17662V15.9729H27.7052ZM27.7052 19.9019C29.7741 19.9019 31.7583 20.7238 33.2212 22.1868C34.6842 23.6497 35.5061 25.6339 35.5061 27.7028C35.5061 29.7718 34.6842 31.7559 33.2212 33.2189C31.7583 34.6818 29.7741 35.5037 27.7052 35.5037H8.17125C6.10273 35.5037 4.11894 34.682 2.65628 33.2193C1.19362 31.7567 0.371902 29.7729 0.371902 27.7044C0.371902 25.6359 1.19362 23.6521 2.65628 22.1894C4.11894 20.7267 6.10273 19.905 8.17125 19.905L27.7052 19.9019ZM59.0263 27.7044C59.0263 26.1617 59.4838 24.6536 60.341 23.371C61.1981 22.0883 62.4164 21.0886 63.8417 20.4984C65.267 19.9082 66.8354 19.7539 68.3484 20.0551C69.8614 20.3563 71.2511 21.0994 72.3417 22.1905C73.4324 23.2816 74.1749 24.6716 74.4755 26.1847C74.7761 27.6978 74.6212 29.2661 74.0304 30.6912C73.4396 32.1163 72.4395 33.3342 71.1565 34.1908C69.8735 35.0474 68.3653 35.5043 66.8226 35.5037H59.0263V27.7044ZM55.0972 27.7044C55.0972 29.7733 54.2754 31.7575 52.8124 33.2204C51.3495 34.6834 49.3653 35.5053 47.2964 35.5053C45.2274 35.5053 43.2432 34.6834 41.7803 33.2204C40.3173 31.7575 39.4955 29.7733 39.4955 27.7044V8.17044C39.4955 6.10192 40.3172 4.11813 41.7798 2.65547C43.2425 1.19281 45.2263 0.371094 47.2948 0.371094C49.3633 0.371094 51.3471 1.19281 52.8098 2.65547C54.2724 4.11813 55.0942 6.10192 55.0942 8.17044L55.0972 27.7044ZM47.2948 59.0255C48.8375 59.0255 50.3455 59.483 51.6282 60.3401C52.9109 61.1973 53.9105 62.4156 54.5008 63.8409C55.091 65.2662 55.2453 66.8345 54.9441 68.3476C54.6429 69.8606 53.8997 71.2503 52.8087 72.3409C51.7176 73.4315 50.3276 74.1741 48.8145 74.4747C47.3014 74.7753 45.7331 74.6204 44.308 74.0296C42.8829 73.4388 41.665 72.4387 40.8084 71.1557C39.9518 69.8727 39.4949 68.3644 39.4955 66.8217V59.0255H47.2948ZM47.2948 55.0964C45.2259 55.0964 43.2417 54.2746 41.7787 52.8116C40.3158 51.3487 39.4939 49.3645 39.4939 47.2955C39.4939 45.2266 40.3158 43.2424 41.7787 41.7795C43.2417 40.3165 45.2259 39.4947 47.2948 39.4947H66.8257C68.8942 39.4947 70.878 40.3164 72.3406 41.779C73.8033 43.2417 74.625 45.2255 74.625 47.294C74.625 49.3625 73.8033 51.3463 72.3406 52.809C70.878 54.2716 68.8942 55.0933 66.8257 55.0933L47.2948 55.0964Z" fill="white"/>
</svg>
